STARTFONT 2.1
COMMENT 
COMMENT Converted from OpenType font "3x5.ttf" by "otf2bdf 3.0".
COMMENT 
COMMENT Edited by WeegeeNumbuh1 to add arrows and other useful drawing elements
COMMENT nb: the added glyphs can be seen by the name "char[decimal]"; convert to hex to map it to Unicode
COMMENT 
FONT -FreeType-Teeny Tiny Pixls-Medium-R-Normal--5-50-72-72-P-32-ISO10646-1
SIZE 5 72 72
FONTBOUNDINGBOX 3 5 0 0
STARTPROPERTIES 20
FOUNDRY "FreeType"
FAMILY_NAME "Teeny Tiny Pixls"
WEIGHT_NAME "Medium"
SLANT "R"
SETWIDTH_NAME "Normal"
ADD_STYLE_NAME ""
PIXEL_SIZE 5
POINT_SIZE 50
RESOLUTION_X 72
RESOLUTION_Y 72
SPACING "P"
AVERAGE_WIDTH 32
CHARSET_REGISTRY "ISO10646"
CHARSET_ENCODING "1"
FONT_ASCENT 5
FONT_DESCENT 0
COPYRIGHT "Copyright Chequered Ink Ltd. 2018"
_OTF_FONTFILE "3x5.ttf"
_OTF_PSNAME "Teeny-Tiny-Pixls"
_GBDFED_INFO "Edited with gbdfed 1.6."
ENDPROPERTIES
CHARS 237
STARTCHAR 0020
ENCODING 32
SWIDTH 800 0
DWIDTH 4 0
BBX 0 0 0 0
BITMAP
ENDCHAR
STARTCHAR 0021
ENCODING 33
SWIDTH 800 0
DWIDTH 4 0
BBX 1 5 1 0
BITMAP
80
80
80
00
80
ENDCHAR
STARTCHAR 0022
ENCODING 34
SWIDTH 800 0
DWIDTH 4 0
BBX 3 2 0 3
BITMAP
A0
A0
ENDCHAR
STARTCHAR 0023
ENCODING 35
SWIDTH 800 0
DWIDTH 4 0
BBX 3 5 0 0
BITMAP
A0
E0
A0
E0
A0
ENDCHAR
STARTCHAR 0024
ENCODING 36
SWIDTH 800 0
DWIDTH 4 0
BBX 3 5 0 0
BITMAP
60
80
40
20
C0
ENDCHAR
STARTCHAR 0025
ENCODING 37
SWIDTH 800 0
DWIDTH 4 0
BBX 3 5 0 0
BITMAP
A0
20
40
80
A0
ENDCHAR
STARTCHAR 0026
ENCODING 38
SWIDTH 800 0
DWIDTH 4 0
BBX 3 5 0 0
BITMAP
C0
80
E0
80
E0
ENDCHAR
STARTCHAR 0027
ENCODING 39
SWIDTH 800 0
DWIDTH 4 0
BBX 1 2 1 3
BITMAP
80
80
ENDCHAR
STARTCHAR 0028
ENCODING 40
SWIDTH 800 0
DWIDTH 4 0
BBX 2 5 0 0
BITMAP
40
80
80
80
40
ENDCHAR
STARTCHAR 0029
ENCODING 41
SWIDTH 800 0
DWIDTH 4 0
BBX 2 5 0 0
BITMAP
80
40
40
40
80
ENDCHAR
STARTCHAR 002A
ENCODING 42
SWIDTH 800 0
DWIDTH 4 0
BBX 3 4 0 1
BITMAP
40
E0
40
A0
ENDCHAR
STARTCHAR 002B
ENCODING 43
SWIDTH 800 0
DWIDTH 4 0
BBX 3 3 0 1
BITMAP
40
E0
40
ENDCHAR
STARTCHAR 002C
ENCODING 44
SWIDTH 800 0
DWIDTH 4 0
BBX 1 2 1 0
BITMAP
80
80
ENDCHAR
STARTCHAR 002D
ENCODING 45
SWIDTH 800 0
DWIDTH 4 0
BBX 3 1 0 2
BITMAP
E0
ENDCHAR
STARTCHAR 002E
ENCODING 46
SWIDTH 800 0
DWIDTH 4 0
BBX 1 1 1 0
BITMAP
80
ENDCHAR
STARTCHAR 002F
ENCODING 47
SWIDTH 800 0
DWIDTH 4 0
BBX 3 5 0 0
BITMAP
20
40
40
80
80
ENDCHAR
STARTCHAR 0030
ENCODING 48
SWIDTH 800 0
DWIDTH 4 0
BBX 3 5 0 0
BITMAP
E0
A0
A0
A0
E0
ENDCHAR
STARTCHAR 0031
ENCODING 49
SWIDTH 800 0
DWIDTH 4 0
BBX 3 5 0 0
BITMAP
C0
40
40
40
E0
ENDCHAR
STARTCHAR 0032
ENCODING 50
SWIDTH 800 0
DWIDTH 4 0
BBX 3 5 0 0
BITMAP
E0
20
E0
80
E0
ENDCHAR
STARTCHAR 0033
ENCODING 51
SWIDTH 800 0
DWIDTH 4 0
BBX 3 5 0 0
BITMAP
E0
20
E0
20
E0
ENDCHAR
STARTCHAR 0034
ENCODING 52
SWIDTH 800 0
DWIDTH 4 0
BBX 3 5 0 0
BITMAP
A0
A0
E0
20
20
ENDCHAR
STARTCHAR 0035
ENCODING 53
SWIDTH 800 0
DWIDTH 4 0
BBX 3 5 0 0
BITMAP
E0
80
E0
20
E0
ENDCHAR
STARTCHAR 0036
ENCODING 54
SWIDTH 800 0
DWIDTH 4 0
BBX 3 5 0 0
BITMAP
E0
80
E0
A0
E0
ENDCHAR
STARTCHAR 0037
ENCODING 55
SWIDTH 800 0
DWIDTH 4 0
BBX 3 5 0 0
BITMAP
E0
A0
20
20
20
ENDCHAR
STARTCHAR 0038
ENCODING 56
SWIDTH 800 0
DWIDTH 4 0
BBX 3 5 0 0
BITMAP
E0
A0
E0
A0
E0
ENDCHAR
STARTCHAR 0039
ENCODING 57
SWIDTH 800 0
DWIDTH 4 0
BBX 3 5 0 0
BITMAP
E0
A0
E0
20
20
ENDCHAR
STARTCHAR 003A
ENCODING 58
SWIDTH 800 0
DWIDTH 4 0
BBX 1 3 1 1
BITMAP
80
00
80
ENDCHAR
STARTCHAR 003B
ENCODING 59
SWIDTH 800 0
DWIDTH 4 0
BBX 1 4 1 0
BITMAP
80
00
80
80
ENDCHAR
STARTCHAR 003C
ENCODING 60
SWIDTH 800 0
DWIDTH 4 0
BBX 3 5 0 0
BITMAP
20
40
80
40
20
ENDCHAR
STARTCHAR 003D
ENCODING 61
SWIDTH 800 0
DWIDTH 4 0
BBX 3 3 0 1
BITMAP
E0
00
E0
ENDCHAR
STARTCHAR 003E
ENCODING 62
SWIDTH 800 0
DWIDTH 4 0
BBX 3 5 0 0
BITMAP
80
40
20
40
80
ENDCHAR
STARTCHAR 003F
ENCODING 63
SWIDTH 800 0
DWIDTH 4 0
BBX 3 5 0 0
BITMAP
E0
20
60
00
40
ENDCHAR
STARTCHAR 0040
ENCODING 64
SWIDTH 800 0
DWIDTH 4 0
BBX 3 5 0 0
BITMAP
E0
A0
A0
80
E0
ENDCHAR
STARTCHAR 0041
ENCODING 65
SWIDTH 800 0
DWIDTH 4 0
BBX 3 5 0 0
BITMAP
E0
A0
E0
A0
A0
ENDCHAR
STARTCHAR 0042
ENCODING 66
SWIDTH 800 0
DWIDTH 4 0
BBX 3 5 0 0
BITMAP
E0
A0
C0
A0
E0
ENDCHAR
STARTCHAR 0043
ENCODING 67
SWIDTH 800 0
DWIDTH 4 0
BBX 3 5 0 0
BITMAP
E0
80
80
80
E0
ENDCHAR
STARTCHAR 0044
ENCODING 68
SWIDTH 800 0
DWIDTH 4 0
BBX 3 5 0 0
BITMAP
C0
A0
A0
A0
C0
ENDCHAR
STARTCHAR 0045
ENCODING 69
SWIDTH 800 0
DWIDTH 4 0
BBX 3 5 0 0
BITMAP
E0
80
E0
80
E0
ENDCHAR
STARTCHAR 0046
ENCODING 70
SWIDTH 800 0
DWIDTH 4 0
BBX 3 5 0 0
BITMAP
E0
80
E0
80
80
ENDCHAR
STARTCHAR 0047
ENCODING 71
SWIDTH 800 0
DWIDTH 4 0
BBX 3 5 0 0
BITMAP
E0
80
A0
A0
E0
ENDCHAR
STARTCHAR 0048
ENCODING 72
SWIDTH 800 0
DWIDTH 4 0
BBX 3 5 0 0
BITMAP
A0
A0
E0
A0
A0
ENDCHAR
STARTCHAR 0049
ENCODING 73
SWIDTH 800 0
DWIDTH 4 0
BBX 3 5 0 0
BITMAP
E0
40
40
40
E0
ENDCHAR
STARTCHAR 004A
ENCODING 74
SWIDTH 800 0
DWIDTH 4 0
BBX 3 5 0 0
BITMAP
20
20
20
A0
E0
ENDCHAR
STARTCHAR 004B
ENCODING 75
SWIDTH 800 0
DWIDTH 4 0
BBX 3 5 0 0
BITMAP
A0
A0
C0
A0
A0
ENDCHAR
STARTCHAR 004C
ENCODING 76
SWIDTH 800 0
DWIDTH 4 0
BBX 3 5 0 0
BITMAP
80
80
80
80
E0
ENDCHAR
STARTCHAR 004D
ENCODING 77
SWIDTH 800 0
DWIDTH 4 0
BBX 3 5 0 0
BITMAP
A0
E0
A0
A0
A0
ENDCHAR
STARTCHAR 004E
ENCODING 78
SWIDTH 800 0
DWIDTH 4 0
BBX 3 5 0 0
BITMAP
E0
A0
A0
A0
A0
ENDCHAR
STARTCHAR 004F
ENCODING 79
SWIDTH 800 0
DWIDTH 4 0
BBX 3 5 0 0
BITMAP
E0
A0
A0
A0
E0
ENDCHAR
STARTCHAR 0050
ENCODING 80
SWIDTH 800 0
DWIDTH 4 0
BBX 3 5 0 0
BITMAP
E0
A0
E0
80
80
ENDCHAR
STARTCHAR 0051
ENCODING 81
SWIDTH 800 0
DWIDTH 4 0
BBX 3 5 0 0
BITMAP
E0
A0
A0
C0
A0
ENDCHAR
STARTCHAR 0052
ENCODING 82
SWIDTH 800 0
DWIDTH 4 0
BBX 3 5 0 0
BITMAP
E0
A0
C0
A0
A0
ENDCHAR
STARTCHAR 0053
ENCODING 83
SWIDTH 800 0
DWIDTH 4 0
BBX 3 5 0 0
BITMAP
E0
80
E0
20
E0
ENDCHAR
STARTCHAR 0054
ENCODING 84
SWIDTH 800 0
DWIDTH 4 0
BBX 3 5 0 0
BITMAP
E0
40
40
40
40
ENDCHAR
STARTCHAR 0055
ENCODING 85
SWIDTH 800 0
DWIDTH 4 0
BBX 3 5 0 0
BITMAP
A0
A0
A0
A0
E0
ENDCHAR
STARTCHAR 0056
ENCODING 86
SWIDTH 800 0
DWIDTH 4 0
BBX 3 5 0 0
BITMAP
A0
A0
A0
A0
40
ENDCHAR
STARTCHAR 0057
ENCODING 87
SWIDTH 800 0
DWIDTH 4 0
BBX 3 5 0 0
BITMAP
A0
A0
A0
E0
A0
ENDCHAR
STARTCHAR 0058
ENCODING 88
SWIDTH 800 0
DWIDTH 4 0
BBX 3 5 0 0
BITMAP
A0
A0
40
A0
A0
ENDCHAR
STARTCHAR 0059
ENCODING 89
SWIDTH 800 0
DWIDTH 4 0
BBX 3 5 0 0
BITMAP
A0
A0
E0
40
40
ENDCHAR
STARTCHAR 005A
ENCODING 90
SWIDTH 800 0
DWIDTH 4 0
BBX 3 5 0 0
BITMAP
E0
20
40
80
E0
ENDCHAR
STARTCHAR 005B
ENCODING 91
SWIDTH 800 0
DWIDTH 4 0
BBX 2 5 0 0
BITMAP
C0
80
80
80
C0
ENDCHAR
STARTCHAR 005C
ENCODING 92
SWIDTH 800 0
DWIDTH 4 0
BBX 3 5 0 0
BITMAP
80
40
40
20
20
ENDCHAR
STARTCHAR 005D
ENCODING 93
SWIDTH 800 0
DWIDTH 4 0
BBX 2 5 0 0
BITMAP
C0
40
40
40
C0
ENDCHAR
STARTCHAR 005E
ENCODING 94
SWIDTH 800 0
DWIDTH 4 0
BBX 3 2 0 3
BITMAP
40
A0
ENDCHAR
STARTCHAR 005F
ENCODING 95
SWIDTH 800 0
DWIDTH 4 0
BBX 3 1 0 0
BITMAP
E0
ENDCHAR
STARTCHAR 0060
ENCODING 96
SWIDTH 800 0
DWIDTH 4 0
BBX 2 2 0 3
BITMAP
80
40
ENDCHAR
STARTCHAR 0061
ENCODING 97
SWIDTH 800 0
DWIDTH 4 0
BBX 3 4 0 0
BITMAP
60
A0
A0
60
ENDCHAR
STARTCHAR 0062
ENCODING 98
SWIDTH 800 0
DWIDTH 4 0
BBX 3 5 0 0
BITMAP
80
E0
A0
A0
E0
ENDCHAR
STARTCHAR 0063
ENCODING 99
SWIDTH 800 0
DWIDTH 4 0
BBX 3 4 0 0
BITMAP
E0
80
80
E0
ENDCHAR
STARTCHAR 0064
ENCODING 100
SWIDTH 800 0
DWIDTH 4 0
BBX 3 5 0 0
BITMAP
20
E0
A0
A0
E0
ENDCHAR
STARTCHAR 0065
ENCODING 101
SWIDTH 800 0
DWIDTH 4 0
BBX 3 4 0 0
BITMAP
60
A0
C0
60
ENDCHAR
STARTCHAR 0066
ENCODING 102
SWIDTH 800 0
DWIDTH 4 0
BBX 3 5 0 0
BITMAP
20
40
E0
40
40
ENDCHAR
STARTCHAR 0067
ENCODING 103
SWIDTH 800 0
DWIDTH 4 0
BBX 3 4 0 0
BITMAP
C0
A0
60
C0
ENDCHAR
STARTCHAR 0068
ENCODING 104
SWIDTH 800 0
DWIDTH 4 0
BBX 3 5 0 0
BITMAP
80
E0
A0
A0
A0
ENDCHAR
STARTCHAR 0069
ENCODING 105
SWIDTH 800 0
DWIDTH 4 0
BBX 3 5 0 0
BITMAP
40
00
40
40
E0
ENDCHAR
STARTCHAR 006A
ENCODING 106
SWIDTH 800 0
DWIDTH 4 0
BBX 2 5 0 0
BITMAP
40
00
40
40
C0
ENDCHAR
STARTCHAR 006B
ENCODING 107
SWIDTH 800 0
DWIDTH 4 0
BBX 3 5 0 0
BITMAP
80
A0
C0
A0
A0
ENDCHAR
STARTCHAR 006C
ENCODING 108
SWIDTH 800 0
DWIDTH 4 0
BBX 3 5 0 0
BITMAP
C0
40
40
40
60
ENDCHAR
STARTCHAR 006D
ENCODING 109
SWIDTH 800 0
DWIDTH 4 0
BBX 3 4 0 0
BITMAP
A0
E0
A0
A0
ENDCHAR
STARTCHAR 006E
ENCODING 110
SWIDTH 800 0
DWIDTH 4 0
BBX 3 4 0 0
BITMAP
E0
A0
A0
A0
ENDCHAR
STARTCHAR 006F
ENCODING 111
SWIDTH 800 0
DWIDTH 4 0
BBX 3 4 0 0
BITMAP
E0
A0
A0
E0
ENDCHAR
STARTCHAR 0070
ENCODING 112
SWIDTH 800 0
DWIDTH 4 0
BBX 3 4 0 0
BITMAP
E0
A0
E0
80
ENDCHAR
STARTCHAR 0071
ENCODING 113
SWIDTH 800 0
DWIDTH 4 0
BBX 3 4 0 0
BITMAP
E0
A0
E0
20
ENDCHAR
STARTCHAR 0072
ENCODING 114
SWIDTH 800 0
DWIDTH 4 0
BBX 3 4 0 0
BITMAP
E0
80
80
80
ENDCHAR
STARTCHAR 0073
ENCODING 115
SWIDTH 800 0
DWIDTH 4 0
BBX 3 4 0 0
BITMAP
60
C0
60
C0
ENDCHAR
STARTCHAR 0074
ENCODING 116
SWIDTH 800 0
DWIDTH 4 0
BBX 3 4 0 0
BITMAP
40
E0
40
60
ENDCHAR
STARTCHAR 0075
ENCODING 117
SWIDTH 800 0
DWIDTH 4 0
BBX 3 4 0 0
BITMAP
A0
A0
A0
E0
ENDCHAR
STARTCHAR 0076
ENCODING 118
SWIDTH 800 0
DWIDTH 4 0
BBX 3 4 0 0
BITMAP
A0
A0
A0
40
ENDCHAR
STARTCHAR 0077
ENCODING 119
SWIDTH 800 0
DWIDTH 4 0
BBX 3 4 0 0
BITMAP
A0
A0
E0
A0
ENDCHAR
STARTCHAR 0078
ENCODING 120
SWIDTH 800 0
DWIDTH 4 0
BBX 3 4 0 0
BITMAP
A0
40
A0
A0
ENDCHAR
STARTCHAR 0079
ENCODING 121
SWIDTH 800 0
DWIDTH 4 0
BBX 3 4 0 0
BITMAP
A0
A0
E0
20
ENDCHAR
STARTCHAR 007A
ENCODING 122
SWIDTH 800 0
DWIDTH 4 0
BBX 3 4 0 0
BITMAP
E0
60
80
E0
ENDCHAR
STARTCHAR 007B
ENCODING 123
SWIDTH 800 0
DWIDTH 4 0
BBX 3 5 0 0
BITMAP
60
40
C0
40
60
ENDCHAR
STARTCHAR 007C
ENCODING 124
SWIDTH 800 0
DWIDTH 4 0
BBX 1 5 1 0
BITMAP
80
80
80
80
80
ENDCHAR
STARTCHAR 007D
ENCODING 125
SWIDTH 800 0
DWIDTH 4 0
BBX 3 5 0 0
BITMAP
C0
40
60
40
C0
ENDCHAR
STARTCHAR 007E
ENCODING 126
SWIDTH 800 0
DWIDTH 4 0
BBX 3 3 0 1
BITMAP
20
E0
80
ENDCHAR
STARTCHAR 00A1
ENCODING 161
SWIDTH 800 0
DWIDTH 4 0
BBX 1 5 1 0
BITMAP
80
00
80
80
80
ENDCHAR
STARTCHAR 00A2
ENCODING 162
SWIDTH 800 0
DWIDTH 4 0
BBX 3 5 0 0
BITMAP
40
E0
80
E0
40
ENDCHAR
STARTCHAR 00A3
ENCODING 163
SWIDTH 800 0
DWIDTH 4 0
BBX 3 5 0 0
BITMAP
20
40
E0
40
60
ENDCHAR
STARTCHAR 00A4
ENCODING 164
SWIDTH 800 0
DWIDTH 4 0
BBX 3 5 0 0
BITMAP
A0
E0
A0
E0
A0
ENDCHAR
STARTCHAR 00A5
ENCODING 165
SWIDTH 800 0
DWIDTH 4 0
BBX 3 5 0 0
BITMAP
A0
E0
40
E0
40
ENDCHAR
STARTCHAR 00A6
ENCODING 166
SWIDTH 800 0
DWIDTH 4 0
BBX 1 5 1 0
BITMAP
80
80
00
80
80
ENDCHAR
STARTCHAR 00A7
ENCODING 167
SWIDTH 800 0
DWIDTH 4 0
BBX 3 5 0 0
BITMAP
60
80
40
20
C0
ENDCHAR
STARTCHAR 00A8
ENCODING 168
SWIDTH 800 0
DWIDTH 4 0
BBX 3 1 0 4
BITMAP
A0
ENDCHAR
STARTCHAR 00A9
ENCODING 169
SWIDTH 800 0
DWIDTH 4 0
BBX 3 5 0 0
BITMAP
60
80
80
80
60
ENDCHAR
STARTCHAR 00AA
ENCODING 170
SWIDTH 800 0
DWIDTH 4 0
BBX 3 4 0 1
BITMAP
E0
20
E0
E0
ENDCHAR
STARTCHAR 00AB
ENCODING 171
SWIDTH 800 0
DWIDTH 4 0
BBX 2 3 0 1
BITMAP
40
80
40
ENDCHAR
STARTCHAR 00AC
ENCODING 172
SWIDTH 800 0
DWIDTH 4 0
BBX 3 2 0 1
BITMAP
E0
20
ENDCHAR
STARTCHAR 00AD
ENCODING 173
SWIDTH 800 0
DWIDTH 4 0
BBX 3 1 0 2
BITMAP
E0
ENDCHAR
STARTCHAR 00AE
ENCODING 174
SWIDTH 800 0
DWIDTH 4 0
BBX 3 5 0 0
BITMAP
40
A0
C0
A0
A0
ENDCHAR
STARTCHAR 00AF
ENCODING 175
SWIDTH 800 0
DWIDTH 4 0
BBX 3 1 0 4
BITMAP
E0
ENDCHAR
STARTCHAR 00B0
ENCODING 176
SWIDTH 800 0
DWIDTH 4 0
BBX 3 3 0 2
BITMAP
40
A0
40
ENDCHAR
STARTCHAR 00B1
ENCODING 177
SWIDTH 800 0
DWIDTH 4 0
BBX 3 5 0 0
BITMAP
40
E0
40
00
E0
ENDCHAR
STARTCHAR 00B2
ENCODING 178
SWIDTH 800 0
DWIDTH 4 0
BBX 3 4 0 1
BITMAP
E0
20
40
E0
ENDCHAR
STARTCHAR 00B3
ENCODING 179
SWIDTH 800 0
DWIDTH 4 0
BBX 3 4 0 1
BITMAP
E0
20
60
E0
ENDCHAR
STARTCHAR 00B4
ENCODING 180
SWIDTH 800 0
DWIDTH 4 0
BBX 2 2 0 3
BITMAP
40
80
ENDCHAR
STARTCHAR 00B5
ENCODING 181
SWIDTH 800 0
DWIDTH 4 0
BBX 3 5 0 0
BITMAP
A0
A0
A0
E0
80
ENDCHAR
STARTCHAR 00B6
ENCODING 182
SWIDTH 800 0
DWIDTH 4 0
BBX 3 5 0 0
BITMAP
60
E0
60
20
20
ENDCHAR
STARTCHAR 00B7
ENCODING 183
SWIDTH 800 0
DWIDTH 4 0
BBX 1 1 0 2
BITMAP
80
ENDCHAR
STARTCHAR 00B8
ENCODING 184
SWIDTH 800 0
DWIDTH 4 0
BBX 1 1 1 0
BITMAP
80
ENDCHAR
STARTCHAR 00B9
ENCODING 185
SWIDTH 800 0
DWIDTH 4 0
BBX 2 4 0 1
BITMAP
C0
40
40
40
ENDCHAR
STARTCHAR 00BA
ENCODING 186
SWIDTH 800 0
DWIDTH 4 0
BBX 3 4 0 1
BITMAP
E0
A0
A0
E0
ENDCHAR
STARTCHAR 00BB
ENCODING 187
SWIDTH 800 0
DWIDTH 4 0
BBX 2 3 0 1
BITMAP
80
40
80
ENDCHAR
STARTCHAR 00BC
ENCODING 188
SWIDTH 800 0
DWIDTH 4 0
BBX 3 5 0 0
BITMAP
A0
A0
40
A0
A0
ENDCHAR
STARTCHAR 00BD
ENCODING 189
SWIDTH 800 0
DWIDTH 4 0
BBX 3 5 0 0
BITMAP
A0
A0
40
A0
A0
ENDCHAR
STARTCHAR 00BE
ENCODING 190
SWIDTH 800 0
DWIDTH 4 0
BBX 3 5 0 0
BITMAP
A0
A0
40
A0
A0
ENDCHAR
STARTCHAR 00BF
ENCODING 191
SWIDTH 800 0
DWIDTH 4 0
BBX 3 5 0 0
BITMAP
40
00
C0
80
E0
ENDCHAR
STARTCHAR 00C0
ENCODING 192
SWIDTH 800 0
DWIDTH 4 0
BBX 3 5 0 0
BITMAP
80
E0
A0
E0
A0
ENDCHAR
STARTCHAR 00C1
ENCODING 193
SWIDTH 800 0
DWIDTH 4 0
BBX 3 5 0 0
BITMAP
20
E0
A0
E0
A0
ENDCHAR
STARTCHAR 00C2
ENCODING 194
SWIDTH 800 0
DWIDTH 4 0
BBX 3 5 0 0
BITMAP
40
E0
A0
E0
A0
ENDCHAR
STARTCHAR 00C3
ENCODING 195
SWIDTH 800 0
DWIDTH 4 0
BBX 3 5 0 0
BITMAP
E0
E0
A0
E0
A0
ENDCHAR
STARTCHAR 00C4
ENCODING 196
SWIDTH 800 0
DWIDTH 4 0
BBX 3 5 0 0
BITMAP
A0
E0
A0
E0
A0
ENDCHAR
STARTCHAR 00C5
ENCODING 197
SWIDTH 800 0
DWIDTH 4 0
BBX 3 5 0 0
BITMAP
40
E0
A0
E0
A0
ENDCHAR
STARTCHAR 00C6
ENCODING 198
SWIDTH 800 0
DWIDTH 4 0
BBX 3 5 0 0
BITMAP
60
C0
E0
C0
A0
ENDCHAR
STARTCHAR 00C7
ENCODING 199
SWIDTH 800 0
DWIDTH 4 0
BBX 3 5 0 0
BITMAP
E0
80
80
E0
40
ENDCHAR
STARTCHAR 00C8
ENCODING 200
SWIDTH 800 0
DWIDTH 4 0
BBX 3 5 0 0
BITMAP
80
40
E0
C0
E0
ENDCHAR
STARTCHAR 00C9
ENCODING 201
SWIDTH 800 0
DWIDTH 4 0
BBX 3 5 0 0
BITMAP
20
40
E0
C0
E0
ENDCHAR
STARTCHAR 00CA
ENCODING 202
SWIDTH 800 0
DWIDTH 4 0
BBX 3 5 0 0
BITMAP
40
A0
E0
C0
E0
ENDCHAR
STARTCHAR 00CB
ENCODING 203
SWIDTH 800 0
DWIDTH 4 0
BBX 3 5 0 0
BITMAP
A0
00
E0
C0
E0
ENDCHAR
STARTCHAR 00CC
ENCODING 204
SWIDTH 800 0
DWIDTH 4 0
BBX 3 5 0 0
BITMAP
80
40
E0
40
E0
ENDCHAR
STARTCHAR 00CD
ENCODING 205
SWIDTH 800 0
DWIDTH 4 0
BBX 3 5 0 0
BITMAP
20
40
E0
40
E0
ENDCHAR
STARTCHAR 00CE
ENCODING 206
SWIDTH 800 0
DWIDTH 4 0
BBX 3 5 0 0
BITMAP
40
A0
E0
40
E0
ENDCHAR
STARTCHAR 00CF
ENCODING 207
SWIDTH 800 0
DWIDTH 4 0
BBX 3 5 0 0
BITMAP
A0
00
E0
40
E0
ENDCHAR
STARTCHAR 00D0
ENCODING 208
SWIDTH 800 0
DWIDTH 4 0
BBX 3 5 0 0
BITMAP
C0
A0
E0
A0
C0
ENDCHAR
STARTCHAR 00D1
ENCODING 209
SWIDTH 800 0
DWIDTH 4 0
BBX 3 5 0 0
BITMAP
E0
00
E0
A0
A0
ENDCHAR
STARTCHAR 00D2
ENCODING 210
SWIDTH 800 0
DWIDTH 4 0
BBX 3 5 0 0
BITMAP
80
40
E0
A0
E0
ENDCHAR
STARTCHAR 00D3
ENCODING 211
SWIDTH 800 0
DWIDTH 4 0
BBX 3 5 0 0
BITMAP
20
40
E0
A0
E0
ENDCHAR
STARTCHAR 00D4
ENCODING 212
SWIDTH 800 0
DWIDTH 4 0
BBX 3 5 0 0
BITMAP
40
A0
E0
A0
E0
ENDCHAR
STARTCHAR 00D5
ENCODING 213
SWIDTH 800 0
DWIDTH 4 0
BBX 3 5 0 0
BITMAP
E0
00
E0
A0
E0
ENDCHAR
STARTCHAR 00D6
ENCODING 214
SWIDTH 800 0
DWIDTH 4 0
BBX 3 5 0 0
BITMAP
A0
00
E0
A0
E0
ENDCHAR
STARTCHAR 00D7
ENCODING 215
SWIDTH 800 0
DWIDTH 4 0
BBX 3 3 0 1
BITMAP
A0
40
A0
ENDCHAR
STARTCHAR 00D8
ENCODING 216
SWIDTH 800 0
DWIDTH 4 0
BBX 3 5 0 0
BITMAP
E0
A0
E0
A0
E0
ENDCHAR
STARTCHAR 00D9
ENCODING 217
SWIDTH 800 0
DWIDTH 4 0
BBX 3 5 0 0
BITMAP
80
40
A0
A0
E0
ENDCHAR
STARTCHAR 00DA
ENCODING 218
SWIDTH 800 0
DWIDTH 4 0
BBX 3 5 0 0
BITMAP
20
40
A0
A0
E0
ENDCHAR
STARTCHAR 00DB
ENCODING 219
SWIDTH 800 0
DWIDTH 4 0
BBX 3 5 0 0
BITMAP
40
A0
A0
A0
E0
ENDCHAR
STARTCHAR 00DC
ENCODING 220
SWIDTH 800 0
DWIDTH 4 0
BBX 3 5 0 0
BITMAP
A0
00
A0
A0
E0
ENDCHAR
STARTCHAR 00DD
ENCODING 221
SWIDTH 800 0
DWIDTH 4 0
BBX 3 5 0 0
BITMAP
20
40
A0
E0
40
ENDCHAR
STARTCHAR 00DE
ENCODING 222
SWIDTH 800 0
DWIDTH 4 0
BBX 3 5 0 0
BITMAP
80
E0
A0
E0
80
ENDCHAR
STARTCHAR 00DF
ENCODING 223
SWIDTH 800 0
DWIDTH 4 0
BBX 3 5 0 0
BITMAP
C0
A0
C0
A0
C0
ENDCHAR
STARTCHAR 00E0
ENCODING 224
SWIDTH 800 0
DWIDTH 4 0
BBX 3 5 0 0
BITMAP
80
40
60
A0
60
ENDCHAR
STARTCHAR 00E1
ENCODING 225
SWIDTH 800 0
DWIDTH 4 0
BBX 3 5 0 0
BITMAP
20
40
60
A0
60
ENDCHAR
STARTCHAR 00E2
ENCODING 226
SWIDTH 800 0
DWIDTH 4 0
BBX 3 5 0 0
BITMAP
40
A0
60
A0
60
ENDCHAR
STARTCHAR 00E3
ENCODING 227
SWIDTH 800 0
DWIDTH 4 0
BBX 3 5 0 0
BITMAP
E0
00
60
A0
60
ENDCHAR
STARTCHAR 00E4
ENCODING 228
SWIDTH 800 0
DWIDTH 4 0
BBX 3 5 0 0
BITMAP
A0
00
60
A0
60
ENDCHAR
STARTCHAR 00E5
ENCODING 229
SWIDTH 800 0
DWIDTH 4 0
BBX 3 5 0 0
BITMAP
40
00
60
A0
60
ENDCHAR
STARTCHAR 00E6
ENCODING 230
SWIDTH 800 0
DWIDTH 4 0
BBX 3 3 0 0
BITMAP
60
C0
60
ENDCHAR
STARTCHAR 00E7
ENCODING 231
SWIDTH 800 0
DWIDTH 4 0
BBX 3 4 0 0
BITMAP
E0
80
E0
40
ENDCHAR
STARTCHAR 00E8
ENCODING 232
SWIDTH 800 0
DWIDTH 4 0
BBX 3 5 0 0
BITMAP
80
60
A0
C0
60
ENDCHAR
STARTCHAR 00E9
ENCODING 233
SWIDTH 800 0
DWIDTH 4 0
BBX 3 5 0 0
BITMAP
20
60
A0
C0
60
ENDCHAR
STARTCHAR 00EA
ENCODING 234
SWIDTH 800 0
DWIDTH 4 0
BBX 3 5 0 0
BITMAP
40
60
A0
C0
60
ENDCHAR
STARTCHAR 00EB
ENCODING 235
SWIDTH 800 0
DWIDTH 4 0
BBX 3 5 0 0
BITMAP
A0
60
A0
C0
60
ENDCHAR
STARTCHAR 00EC
ENCODING 236
SWIDTH 800 0
DWIDTH 4 0
BBX 3 5 0 0
BITMAP
80
40
00
40
E0
ENDCHAR
STARTCHAR 00ED
ENCODING 237
SWIDTH 800 0
DWIDTH 4 0
BBX 3 5 0 0
BITMAP
20
40
00
40
E0
ENDCHAR
STARTCHAR 00EE
ENCODING 238
SWIDTH 800 0
DWIDTH 4 0
BBX 3 5 0 0
BITMAP
40
A0
00
40
E0
ENDCHAR
STARTCHAR 00EF
ENCODING 239
SWIDTH 800 0
DWIDTH 4 0
BBX 3 5 0 0
BITMAP
A0
00
40
40
E0
ENDCHAR
STARTCHAR 00F0
ENCODING 240
SWIDTH 800 0
DWIDTH 4 0
BBX 3 5 0 0
BITMAP
60
20
E0
A0
E0
ENDCHAR
STARTCHAR 00F1
ENCODING 241
SWIDTH 800 0
DWIDTH 4 0
BBX 3 5 0 0
BITMAP
E0
00
E0
A0
A0
ENDCHAR
STARTCHAR 00F2
ENCODING 242
SWIDTH 800 0
DWIDTH 4 0
BBX 3 5 0 0
BITMAP
80
40
E0
A0
E0
ENDCHAR
STARTCHAR 00F3
ENCODING 243
SWIDTH 800 0
DWIDTH 4 0
BBX 3 5 0 0
BITMAP
20
40
E0
A0
E0
ENDCHAR
STARTCHAR 00F4
ENCODING 244
SWIDTH 800 0
DWIDTH 4 0
BBX 3 5 0 0
BITMAP
40
A0
E0
A0
E0
ENDCHAR
STARTCHAR 00F5
ENCODING 245
SWIDTH 800 0
DWIDTH 4 0
BBX 3 5 0 0
BITMAP
E0
00
E0
A0
E0
ENDCHAR
STARTCHAR 00F6
ENCODING 246
SWIDTH 800 0
DWIDTH 4 0
BBX 3 5 0 0
BITMAP
A0
00
E0
A0
E0
ENDCHAR
STARTCHAR 00F7
ENCODING 247
SWIDTH 800 0
DWIDTH 4 0
BBX 3 5 0 0
BITMAP
40
00
E0
00
40
ENDCHAR
STARTCHAR 00F8
ENCODING 248
SWIDTH 800 0
DWIDTH 4 0
BBX 3 5 0 0
BITMAP
E0
A0
E0
A0
E0
ENDCHAR
STARTCHAR 00F9
ENCODING 249
SWIDTH 800 0
DWIDTH 4 0
BBX 3 5 0 0
BITMAP
80
40
A0
A0
E0
ENDCHAR
STARTCHAR 00FA
ENCODING 250
SWIDTH 800 0
DWIDTH 4 0
BBX 3 5 0 0
BITMAP
20
40
A0
A0
E0
ENDCHAR
STARTCHAR 00FB
ENCODING 251
SWIDTH 800 0
DWIDTH 4 0
BBX 3 5 0 0
BITMAP
40
A0
A0
A0
E0
ENDCHAR
STARTCHAR 00FC
ENCODING 252
SWIDTH 800 0
DWIDTH 4 0
BBX 3 5 0 0
BITMAP
A0
00
A0
A0
E0
ENDCHAR
STARTCHAR 00FD
ENCODING 253
SWIDTH 800 0
DWIDTH 4 0
BBX 3 5 0 0
BITMAP
20
40
A0
E0
20
ENDCHAR
STARTCHAR 00FE
ENCODING 254
SWIDTH 800 0
DWIDTH 4 0
BBX 3 5 0 0
BITMAP
80
E0
A0
E0
80
ENDCHAR
STARTCHAR 00FF
ENCODING 255
SWIDTH 800 0
DWIDTH 4 0
BBX 3 5 0 0
BITMAP
A0
00
A0
E0
20
ENDCHAR
STARTCHAR 0152
ENCODING 338
SWIDTH 800 0
DWIDTH 4 0
BBX 3 5 0 0
BITMAP
60
C0
E0
C0
60
ENDCHAR
STARTCHAR 0153
ENCODING 339
SWIDTH 800 0
DWIDTH 4 0
BBX 3 4 0 0
BITMAP
E0
E0
C0
E0
ENDCHAR
STARTCHAR 016E
ENCODING 366
SWIDTH 800 0
DWIDTH 4 0
BBX 3 5 0 0
BITMAP
A0
A0
A0
A0
E0
ENDCHAR
STARTCHAR 016F
ENCODING 367
SWIDTH 800 0
DWIDTH 4 0
BBX 3 5 0 0
BITMAP
A0
A0
A0
A0
E0
ENDCHAR
STARTCHAR 0178
ENCODING 376
SWIDTH 800 0
DWIDTH 4 0
BBX 3 5 0 0
BITMAP
A0
00
A0
E0
40
ENDCHAR
STARTCHAR 017F
ENCODING 383
SWIDTH 800 0
DWIDTH 4 0
BBX 3 5 0 0
BITMAP
E0
E0
E0
E0
E0
ENDCHAR
STARTCHAR char711
ENCODING 711
SWIDTH 800 0
DWIDTH 4 0
BBX 3 2 0 3
BITMAP
A0
40
ENDCHAR
STARTCHAR 1E9E
ENCODING 7838
SWIDTH 800 0
DWIDTH 4 0
BBX 3 5 0 0
BITMAP
C0
A0
C0
A0
E0
ENDCHAR
STARTCHAR 2014
ENCODING 8212
SWIDTH 800 0
DWIDTH 4 0
BBX 3 1 0 2
BITMAP
E0
ENDCHAR
STARTCHAR 2018
ENCODING 8216
SWIDTH 800 0
DWIDTH 4 0
BBX 1 2 1 3
BITMAP
80
80
ENDCHAR
STARTCHAR 2019
ENCODING 8217
SWIDTH 800 0
DWIDTH 4 0
BBX 1 2 1 3
BITMAP
80
80
ENDCHAR
STARTCHAR 201A
ENCODING 8218
SWIDTH 800 0
DWIDTH 4 0
BBX 1 2 1 0
BITMAP
80
80
ENDCHAR
STARTCHAR 201B
ENCODING 8219
SWIDTH 800 0
DWIDTH 4 0
BBX 1 2 1 3
BITMAP
80
80
ENDCHAR
STARTCHAR 201C
ENCODING 8220
SWIDTH 800 0
DWIDTH 4 0
BBX 3 2 0 3
BITMAP
A0
A0
ENDCHAR
STARTCHAR 201D
ENCODING 8221
SWIDTH 800 0
DWIDTH 4 0
BBX 3 2 0 3
BITMAP
A0
A0
ENDCHAR
STARTCHAR 201E
ENCODING 8222
SWIDTH 800 0
DWIDTH 4 0
BBX 3 2 0 0
BITMAP
A0
A0
ENDCHAR
STARTCHAR 2020
ENCODING 8224
SWIDTH 800 0
DWIDTH 4 0
BBX 3 5 0 0
BITMAP
40
E0
40
40
40
ENDCHAR
STARTCHAR char8225
ENCODING 8225
SWIDTH 800 0
DWIDTH 4 0
BBX 3 5 0 0
BITMAP
40
E0
40
E0
40
ENDCHAR
STARTCHAR 2022
ENCODING 8226
SWIDTH 800 0
DWIDTH 4 0
BBX 3 3 0 1
BITMAP
40
E0
40
ENDCHAR
STARTCHAR 2039
ENCODING 8249
SWIDTH 800 0
DWIDTH 4 0
BBX 2 3 0 1
BITMAP
40
80
40
ENDCHAR
STARTCHAR 203A
ENCODING 8250
SWIDTH 800 0
DWIDTH 4 0
BBX 2 3 0 1
BITMAP
80
40
80
ENDCHAR
STARTCHAR 20AC
ENCODING 8364
SWIDTH 800 0
DWIDTH 4 0
BBX 3 5 0 0
BITMAP
60
40
E0
40
60
ENDCHAR
STARTCHAR 2122
ENCODING 8482
SWIDTH 800 0
DWIDTH 4 0
BBX 3 2 0 3
BITMAP
E0
A0
ENDCHAR
STARTCHAR char8592
ENCODING 8592
SWIDTH 800 0
DWIDTH 4 0
BBX 3 5 0 0
BITMAP
20
40
E0
40
20
ENDCHAR
STARTCHAR char8593
ENCODING 8593
SWIDTH 800 0
DWIDTH 4 0
BBX 3 5 0 0
BITMAP
40
E0
40
40
40
ENDCHAR
STARTCHAR char8594
ENCODING 8594
SWIDTH 800 0
DWIDTH 4 0
BBX 3 5 0 0
BITMAP
80
40
E0
40
80
ENDCHAR
STARTCHAR char8595
ENCODING 8595
SWIDTH 800 0
DWIDTH 4 0
BBX 3 5 0 0
BITMAP
40
40
40
E0
40
ENDCHAR
STARTCHAR char8597
ENCODING 8597
SWIDTH 800 0
DWIDTH 4 0
BBX 3 5 0 0
BITMAP
40
E0
40
E0
40
ENDCHAR
STARTCHAR char8942
ENCODING 8942
SWIDTH 800 0
DWIDTH 4 0
BBX 1 5 1 0
BITMAP
80
00
80
00
80
ENDCHAR
STARTCHAR char8944
ENCODING 8944
SWIDTH 800 0
DWIDTH 4 0
BBX 3 5 0 0
BITMAP
20
00
40
00
80
ENDCHAR
STARTCHAR char8945
ENCODING 8945
SWIDTH 800 0
DWIDTH 4 0
BBX 3 5 0 0
BITMAP
80
00
40
00
20
ENDCHAR
STARTCHAR char8962
ENCODING 8962
SWIDTH 800 0
DWIDTH 4 0
BBX 3 4 0 0
BITMAP
40
A0
A0
E0
ENDCHAR
STARTCHAR char9600
ENCODING 9600
SWIDTH 800 0
DWIDTH 4 0
BBX 3 2 0 3
BITMAP
E0
E0
ENDCHAR
STARTCHAR char9604
ENCODING 9604
SWIDTH 800 0
DWIDTH 4 0
BBX 3 2 0 0
BITMAP
E0
E0
ENDCHAR
STARTCHAR char9608
ENCODING 9608
SWIDTH 800 0
DWIDTH 4 0
BBX 3 5 0 0
BITMAP
E0
E0
E0
E0
E0
ENDCHAR
STARTCHAR char9612
ENCODING 9612
SWIDTH 800 0
DWIDTH 4 0
BBX 2 5 0 0
BITMAP
C0
C0
C0
C0
C0
ENDCHAR
STARTCHAR char9616
ENCODING 9616
SWIDTH 800 0
DWIDTH 4 0
BBX 2 5 1 0
BITMAP
C0
C0
C0
C0
C0
ENDCHAR
STARTCHAR char9618
ENCODING 9618
SWIDTH 800 0
DWIDTH 4 0
BBX 3 5 0 0
BITMAP
A0
40
A0
40
A0
ENDCHAR
STARTCHAR char9650
ENCODING 9650
SWIDTH 800 0
DWIDTH 4 0
BBX 3 2 0 1
BITMAP
40
E0
ENDCHAR
STARTCHAR char9658
ENCODING 9658
SWIDTH 800 0
DWIDTH 4 0
BBX 3 5 0 0
BITMAP
80
C0
E0
C0
80
ENDCHAR
STARTCHAR char9660
ENCODING 9660
SWIDTH 800 0
DWIDTH 4 0
BBX 3 2 0 1
BITMAP
E0
40
ENDCHAR
STARTCHAR char9668
ENCODING 9668
SWIDTH 800 0
DWIDTH 4 0
BBX 3 5 0 0
BITMAP
20
60
E0
60
20
ENDCHAR
STARTCHAR char9698
ENCODING 9698
SWIDTH 800 0
DWIDTH 4 0
BBX 3 3 0 0
BITMAP
20
60
E0
ENDCHAR
STARTCHAR char9699
ENCODING 9699
SWIDTH 800 0
DWIDTH 4 0
BBX 3 3 0 0
BITMAP
80
C0
E0
ENDCHAR
STARTCHAR char9700
ENCODING 9700
SWIDTH 800 0
DWIDTH 4 0
BBX 3 3 0 2
BITMAP
E0
C0
80
ENDCHAR
STARTCHAR char9701
ENCODING 9701
SWIDTH 800 0
DWIDTH 4 0
BBX 3 3 0 2
BITMAP
E0
60
20
ENDCHAR
STARTCHAR char9786
ENCODING 9786
SWIDTH 800 0
DWIDTH 4 0
BBX 3 4 0 0
BITMAP
A0
00
A0
40
ENDCHAR
ENDFONT
